<svg xmlns="http://www.w3.org/2000/svg" width="58" height="58" viewBox="0 0 58 58" fill="none">
  <g filter="url(#filter0_d_56_4142)">
    <rect x="4" width="50" height="50" rx="5" fill="#0054A8"/>
  </g>
  <path d="M27.8878 21.6911H40.69C40.0107 19.8628 38.9265 18.2471 37.4373 16.844C35.9481 15.4419 34.2505 14.5013 32.3444 14.0222L27.8878 21.6911ZM24.6678 24.8022L31.1311 13.7111C30.8459 13.6593 30.4913 13.6204 30.0671 13.5944C29.6409 13.5685 29.2852 13.5556 29 13.5556C27.2889 13.5556 25.6944 13.8796 24.2167 14.5278C22.7389 15.1759 21.4296 16.0444 20.2889 17.1333L24.6678 24.8022ZM16.9444 29.1111H25.78L19.4411 18.0791C18.5306 19.2012 17.8218 20.4239 17.3147 21.7471C16.8086 23.0704 16.5556 24.488 16.5556 26C16.5556 26.5444 16.5882 27.0692 16.6536 27.5742C16.7189 28.0793 16.8159 28.5916 16.9444 29.1111ZM25.7147 37.9778L30.1542 30.3089H17.31C17.9893 32.1372 19.0833 33.7529 20.5922 35.156C22.1011 36.5581 23.8086 37.4987 25.7147 37.9778ZM29 38.4444C30.7111 38.4444 32.3056 38.1204 33.7833 37.4722C35.2611 36.8241 36.5704 35.9556 37.7111 34.8667L33.3322 27.1978L26.9296 38.2298C27.2147 38.3013 27.5533 38.3547 27.9453 38.39C28.3373 38.4263 28.6889 38.4444 29 38.4444ZM38.5604 33.9209C39.3901 32.8579 40.0781 31.6353 40.6247 30.2529C41.1712 28.8695 41.4444 27.4519 41.4444 26C41.4444 25.4556 41.4118 24.9308 41.3464 24.4258C41.2811 23.9207 41.1841 23.4084 41.0556 22.8889H32.22L38.5604 33.9209ZM29 40C27.0732 40 25.2584 39.6319 23.5556 38.8956C21.8527 38.1593 20.3698 37.1585 19.1067 35.8933C17.8415 34.6313 16.8407 33.1483 16.1044 31.4444C15.3681 29.7416 15 27.9268 15 26C15 24.068 15.3681 22.2516 16.1044 20.5509C16.8418 18.8501 17.8425 17.3682 19.1067 16.1051C20.3687 14.842 21.8517 13.8423 23.5556 13.106C25.2584 12.3687 27.0732 12 29 12C30.932 12 32.7484 12.3681 34.4491 13.1044C36.1499 13.8418 37.6318 14.8425 38.8949 16.1067C40.158 17.3698 41.1577 18.8512 41.894 20.5509C42.6313 22.2516 43 24.068 43 26C43 27.9268 42.6319 29.7416 41.8956 31.4444C41.1593 33.1473 40.1585 34.6302 38.8933 35.8933C37.6302 37.1575 36.1488 38.1582 34.4491 38.8956C32.7484 39.6319 30.932 40 29 40Z" fill="white"/>
  <defs>
    <filter id="filter0_d_56_4142" x="0" y="0" width="58" height="58" filterUnits="userSpaceOnUse" color-interpolation-filters="sRGB">
      <feFlood flood-opacity="0" result="BackgroundImageFix"/>
      <feColorMatrix in="SourceAlpha" type="matrix" values="0 0 0 0 0 0 0 0 0 0 0 0 0 0 0 0 0 0 127 0" result="hardAlpha"/>
      <feOffset dy="4"/>
      <feGaussianBlur stdDeviation="2"/>
      <feComposite in2="hardAlpha" operator="out"/>
      <feColorMatrix type="matrix" values="0 0 0 0 0 0 0 0 0 0 0 0 0 0 0 0 0 0 0.5 0"/>
      <feBlend mode="normal" in2="BackgroundImageFix" result="effect1_dropShadow_56_4142"/>
      <feBlend mode="normal" in="SourceGraphic" in2="effect1_dropShadow_56_4142" result="shape"/>
    </filter>
  </defs>
</svg>