<svg xmlns="http://www.w3.org/2000/svg" width="58" height="58" viewBox="0 0 58 58" fill="none">
  <g filter="url(#filter0_d_48_868)">
    <rect x="4" width="50" height="50" rx="5" fill="#0054A8"/>
  </g>
  <path d="M38.6658 33.2683H48.2675C47.7581 31.8971 46.9449 30.6853 45.828 29.633C44.7111 28.5814 43.4379 27.876 42.0083 27.5167L38.6658 33.2683ZM36.2508 35.6017L41.0983 27.2833C40.8844 27.2444 40.6184 27.2153 40.3003 27.1958C39.9807 27.1764 39.7139 27.1667 39.5 27.1667C38.2167 27.1667 37.0208 27.4097 35.9125 27.8958C34.8042 28.3819 33.8222 29.0333 32.9667 29.85L36.2508 35.6017ZM30.4583 38.8333H37.085L32.3308 30.5593C31.6479 31.4009 31.1163 32.3179 30.736 33.3103C30.3564 34.3028 30.1667 35.366 30.1667 36.5C30.1667 36.9083 30.1912 37.3019 30.2402 37.6807C30.2892 38.0594 30.3619 38.4437 30.4583 38.8333ZM37.036 45.4833L40.3657 39.7317H30.7325C31.2419 41.1029 32.0625 42.3147 33.1942 43.367C34.3258 44.4186 35.6064 45.124 37.036 45.4833ZM39.5 45.8333C40.7833 45.8333 41.9792 45.5903 43.0875 45.1042C44.1958 44.6181 45.1778 43.9667 46.0333 43.15L42.7492 37.3983L37.9472 45.6723C38.1611 45.726 38.415 45.7661 38.709 45.7925C39.003 45.8197 39.2667 45.8333 39.5 45.8333ZM46.6703 42.4407C47.2926 41.6434 47.8086 40.7264 48.2185 39.6897C48.6284 38.6521 48.8333 37.5889 48.8333 36.5C48.8333 36.0917 48.8088 35.6981 48.7598 35.3193C48.7108 34.9406 48.6381 34.5563 48.5417 34.1667H41.915L46.6703 42.4407ZM39.5 47C38.0549 47 36.6938 46.7239 35.4167 46.1717C34.1396 45.6194 33.0273 44.8689 32.08 43.92C31.1311 42.9734 30.3806 41.8612 29.8283 40.5833C29.2761 39.3062 29 37.9451 29 36.5C29 35.051 29.2761 33.6887 29.8283 32.4132C30.3813 31.1376 31.1319 30.0262 32.08 29.0788C33.0266 28.1315 34.1388 27.3817 35.4167 26.8295C36.6938 26.2765 38.0549 26 39.5 26C40.949 26 42.3113 26.2761 43.5868 26.8283C44.8624 27.3813 45.9738 28.1319 46.9212 29.08C47.8685 30.0273 48.6183 31.1384 49.1705 32.4132C49.7235 33.6887 50 35.051 50 36.5C50 37.9451 49.7239 39.3062 49.1717 40.5833C48.6194 41.8604 47.8689 42.9727 46.92 43.92C45.9727 44.8681 44.8616 45.6187 43.5868 46.1717C42.3113 46.7239 40.949 47 39.5 47Z" fill="white"/>
  <path d="M14.3 14.45C14.5975 14.45 14.8471 14.3492 15.0486 14.1476C15.2502 13.946 15.3507 13.6968 15.35 13.4C15.35 13.1025 15.2492 12.853 15.0476 12.6514C14.846 12.4498 14.5968 12.3493 14.3 12.35C14.0025 12.35 13.7529 12.4508 13.5514 12.6524C13.3498 12.854 13.2493 13.1032 13.25 13.4C13.25 13.6975 13.3508 13.9471 13.5524 14.1487C13.754 14.3503 14.0032 14.4507 14.3 14.45ZM18.5 14.45C18.7975 14.45 19.047 14.3492 19.2486 14.1476C19.4502 13.946 19.5507 13.6968 19.55 13.4C19.55 13.1025 19.4492 12.853 19.2476 12.6514C19.046 12.4498 18.7968 12.3493 18.5 12.35C18.2025 12.35 17.9529 12.4508 17.7513 12.6524C17.5497 12.854 17.4493 13.1032 17.45 13.4C17.45 13.6975 17.5508 13.9471 17.7524 14.1487C17.954 14.3503 18.2032 14.4507 18.5 14.45ZM22.7 14.45C22.9975 14.45 23.247 14.3492 23.4486 14.1476C23.6502 13.946 23.7507 13.6968 23.75 13.4C23.75 13.1025 23.6492 12.853 23.4476 12.6514C23.246 12.4498 22.9968 12.3493 22.7 12.35C22.4025 12.35 22.1529 12.4508 21.9513 12.6524C21.7497 12.854 21.6493 13.1032 21.65 13.4C21.65 13.6975 21.7508 13.9471 21.9524 14.1487C22.154 14.3503 22.4032 14.4507 22.7 14.45ZM8 26V7.1C8 6.5225 8.2058 6.02795 8.6174 5.61635C9.029 5.20475 9.5232 4.9993 10.1 5H26.9C27.4775 5 27.972 5.2058 28.3836 5.6174C28.7952 6.029 29.0007 6.5232 29 7.1V19.7C29 20.2775 28.7942 20.7721 28.3826 21.1837C27.971 21.5953 27.4768 21.8007 26.9 21.8H12.2L8 26ZM11.3075 19.7H26.9V7.1H10.1V20.8813L11.3075 19.7Z" fill="white"/>
  <rect x="43.8198" y="8" width="2" height="45" rx="1" transform="rotate(45 43.8198 8)" fill="white"/>
  <defs>
    <filter id="filter0_d_48_868" x="0" y="0" width="58" height="58" filterUnits="userSpaceOnUse" color-interpolation-filters="sRGB">
      <feFlood flood-opacity="0" result="BackgroundImageFix"/>
      <feColorMatrix in="SourceAlpha" type="matrix" values="0 0 0 0 0 0 0 0 0 0 0 0 0 0 0 0 0 0 127 0" result="hardAlpha"/>
      <feOffset dy="4"/>
      <feGaussianBlur stdDeviation="2"/>
      <feComposite in2="hardAlpha" operator="out"/>
      <feColorMatrix type="matrix" values="0 0 0 0 0 0 0 0 0 0 0 0 0 0 0 0 0 0 0.5 0"/>
      <feBlend mode="normal" in2="BackgroundImageFix" result="effect1_dropShadow_48_868"/>
      <feBlend mode="normal" in="SourceGraphic" in2="effect1_dropShadow_48_868" result="shape"/>
    </filter>
  </defs>
</svg>