<svg width="33" height="33" viewBox="0 0 33 33" fill="none" xmlns="http://www.w3.org/2000/svg">
<g id="Group 3">
<g id="Rectangle 32" filter="url(#filter0_d_2_638)">
<rect x="4" width="25" height="25" rx="10" fill="#0099FF"/>
</g>
<path id="Vector" d="M12.75 7C12.2859 7 11.8408 7.18437 11.5126 7.51256C11.1844 7.84075 11 8.28587 11 8.75V16.25C11 16.7141 11.1844 17.1592 11.5126 17.4874C11.8408 17.8156 12.2859 18 12.75 18H20.25C20.7141 18 21.1592 17.8156 21.4874 17.4874C21.8156 17.1592 22 16.7141 22 16.25V14C22 13.8674 22.0527 13.7402 22.1464 13.6464C22.2402 13.5527 22.3674 13.5 22.5 13.5C22.6326 13.5 22.7598 13.5527 22.8536 13.6464C22.9473 13.7402 23 13.8674 23 14V16.25C23 16.9793 22.7103 17.6788 22.1945 18.1945C21.6788 18.7103 20.9793 19 20.25 19H12.75C12.0207 19 11.3212 18.7103 10.8055 18.1945C10.2897 17.6788 10 16.9793 10 16.25V8.75C10 8.02065 10.2897 7.32118 10.8055 6.80546C11.3212 6.28973 12.0207 6 12.75 6H15C15.1326 6 15.2598 6.05268 15.3536 6.14645C15.4473 6.24021 15.5 6.36739 15.5 6.5C15.5 6.63261 15.4473 6.75979 15.3536 6.85355C15.2598 6.94732 15.1326 7 15 7H12.75ZM17.5 6.5C17.5 6.36739 17.5527 6.24021 17.6464 6.14645C17.7402 6.05268 17.8674 6 18 6H22.5C22.6326 6 22.7598 6.05268 22.8536 6.14645C22.9473 6.24021 23 6.36739 23 6.5V11C23 11.1326 22.9473 11.2598 22.8536 11.3536C22.7598 11.4473 22.6326 11.5 22.5 11.5C22.3674 11.5 22.2402 11.4473 22.1464 11.3536C22.0527 11.2598 22 11.1326 22 11V7.707L18.3535 11.3535C18.2592 11.4446 18.1329 11.495 18.0018 11.4938C17.8707 11.4927 17.7453 11.4401 17.6526 11.3474C17.5599 11.2547 17.5073 11.1293 17.5062 10.9982C17.505 10.8671 17.5554 10.7408 17.6465 10.6465L21.293 7H18C17.8674 7 17.7402 6.94732 17.6464 6.85355C17.5527 6.75979 17.5 6.63261 17.5 6.5Z" fill="black"/>
</g>
<defs>
<filter id="filter0_d_2_638" x="0" y="0" width="33" height="33" filterUnits="userSpaceOnUse" color-interpolation-filters="sRGB">
<feFlood flood-opacity="0" result="BackgroundImageFix"/>
<feColorMatrix in="SourceAlpha" type="matrix" values="0 0 0 0 0 0 0 0 0 0 0 0 0 0 0 0 0 0 127 0" result="hardAlpha"/>
<feOffset dy="4"/>
<feGaussianBlur stdDeviation="2"/>
<feComposite in2="hardAlpha" operator="out"/>
<feColorMatrix type="matrix" values="0 0 0 0 0 0 0 0 0 0 0 0 0 0 0 0 0 0 0.25 0"/>
<feBlend mode="normal" in2="BackgroundImageFix" result="effect1_dropShadow_2_638"/>
<feBlend mode="normal" in="SourceGraphic" in2="effect1_dropShadow_2_638" result="shape"/>
</filter>
</defs>
</svg>
