<svg xmlns="http://www.w3.org/2000/svg" width="58" height="58" viewBox="0 0 58 58" fill="none">
  <g filter="url(#filter0_d_56_4145)">
    <rect x="4" width="50" height="50" rx="5" fill="#0054A8"/>
  </g>
  <path d="M40.3245 25.7622V24.2278L42.3021 22.543C42.6667 22.2302 42.9059 21.802 42.9775 21.334C43.0491 20.8661 42.9485 20.3885 42.6935 19.9858L40.2627 15.9745C40.0821 15.6699 39.8224 15.4169 39.5096 15.2408C39.1969 15.0648 38.8421 14.972 38.4809 14.9716C38.257 14.9699 38.0343 15.0038 37.8217 15.0719L35.3188 15.8942C34.8867 15.6146 34.4359 15.3634 33.9695 15.1421L33.4442 12.6149C33.35 12.1532 33.092 11.7385 32.7154 11.4433C32.3388 11.1482 31.8676 10.9913 31.3842 11.0004H26.5639C26.0805 10.9913 25.6093 11.1482 25.2327 11.4433C24.8561 11.7385 24.5981 12.1532 24.5039 12.6149L23.9786 15.1421C23.5089 15.3633 23.0547 15.6146 22.619 15.8942L20.1676 15.0318C19.9527 14.9773 19.7301 14.9569 19.5084 14.9716C19.1472 14.972 18.7924 15.0648 18.4796 15.2408C18.1669 15.4169 17.9072 15.6699 17.7266 15.9745L15.2958 19.9858C15.0554 20.3879 14.966 20.8589 15.0431 21.3181C15.1201 21.7773 15.3587 22.1962 15.7181 22.5029L17.6648 24.2378V25.7722L15.7181 27.457C15.3486 27.7658 15.1034 28.1922 15.0261 28.6603C14.9488 29.1285 15.0444 29.6081 15.2958 30.0142L17.7266 34.0256C17.9072 34.3302 18.1669 34.5831 18.4796 34.7592C18.7924 34.9352 19.1472 35.028 19.5084 35.0284C19.7323 35.0301 19.955 34.9962 20.1676 34.9281L22.6705 34.1058C23.1026 34.3854 23.5534 34.6366 24.0198 34.8579L24.5451 37.3851C24.6393 37.8468 24.8973 38.2615 25.2739 38.5567C25.6505 38.8518 26.1217 39.0086 26.6051 38.9996H31.4666C31.95 39.0086 32.4212 38.8518 32.7978 38.5567C33.1744 38.2615 33.4324 37.8468 33.5266 37.3851L34.0519 34.8579C34.5216 34.6367 34.9758 34.3854 35.4115 34.1058L37.9041 34.9281C38.1167 34.9962 38.3394 35.0301 38.5633 35.0284C38.9245 35.028 39.2793 34.9352 39.592 34.7592C39.9048 34.5831 40.1645 34.3302 40.3451 34.0256L42.6935 30.0142C42.9339 29.6121 43.0233 29.1411 42.9462 28.6819C42.8692 28.2227 42.6306 27.8038 42.2712 27.4971L40.3245 25.7622ZM38.4809 33.0227L34.948 31.8594C34.121 32.5415 33.1758 33.0746 32.1567 33.4339L31.4254 37.0341H26.5639L25.8326 33.474C24.8216 33.1045 23.8815 32.5723 23.0516 31.8995L19.5084 33.0227L17.0777 29.0114L19.8792 26.6045C19.6888 25.5665 19.6888 24.5037 19.8792 23.4657L17.0777 20.9886L19.5084 16.9773L23.0413 18.1406C23.8683 17.4585 24.8135 16.9254 25.8326 16.5661L26.5639 12.9659H31.4254L32.1567 16.526C33.1677 16.8955 34.1078 17.4277 34.9377 18.1005L38.4809 16.9773L40.9116 20.9886L38.1101 23.3955C38.3005 24.4335 38.3005 25.4963 38.1101 26.5343L40.9116 29.0114L38.4809 33.0227Z" fill="white"/>
  <path d="M28.9944 31.017C27.7721 31.017 26.5773 30.6641 25.561 30.0029C24.5447 29.3418 23.7526 28.402 23.2849 27.3026C22.8171 26.2031 22.6947 24.9933 22.9332 23.8261C23.1717 22.6589 23.7602 21.5868 24.6245 20.7453C25.4888 19.9038 26.59 19.3307 27.7887 19.0985C28.9875 18.8664 30.2301 18.9855 31.3594 19.4409C32.4886 19.8963 33.4538 20.6676 34.1328 21.6571C34.8119 22.6466 35.1743 23.8099 35.1743 24.9999C35.1826 25.7924 35.0284 26.5784 34.7207 27.3121C34.4131 28.0457 33.9582 28.7122 33.3827 29.2726C32.8072 29.8329 32.1226 30.2758 31.3691 30.5753C30.6156 30.8749 29.8083 31.025 28.9944 31.017ZM28.9944 20.9886C28.4499 20.9762 27.9085 21.0716 27.4029 21.2688C26.8973 21.466 26.438 21.761 26.0529 22.136C25.6678 22.511 25.3648 22.9581 25.1622 23.4504C24.9596 23.9426 24.8618 24.4698 24.8744 24.9999C24.8618 25.5301 24.9596 26.0573 25.1622 26.5495C25.3648 27.0418 25.6678 27.4889 26.0529 27.8639C26.438 28.2389 26.8973 28.5339 27.4029 28.7311C27.9085 28.9283 28.4499 29.0237 28.9944 29.0113C29.5389 29.0237 30.0803 28.9283 30.5859 28.7311C31.0915 28.5339 31.5508 28.2389 31.9359 27.8639C32.321 27.4889 32.624 27.0418 32.8266 26.5495C33.0291 26.0573 33.127 25.5301 33.1144 24.9999C33.127 24.4698 33.0291 23.9426 32.8266 23.4504C32.624 22.9581 32.321 22.511 31.9359 22.136C31.5508 21.761 31.0915 21.466 30.5859 21.2688C30.0803 21.0716 29.5389 20.9762 28.9944 20.9886Z" fill="white"/>
  <defs>
    <filter id="filter0_d_56_4145" x="0" y="0" width="58" height="58" filterUnits="userSpaceOnUse" color-interpolation-filters="sRGB">
      <feFlood flood-opacity="0" result="BackgroundImageFix"/>
      <feColorMatrix in="SourceAlpha" type="matrix" values="0 0 0 0 0 0 0 0 0 0 0 0 0 0 0 0 0 0 127 0" result="hardAlpha"/>
      <feOffset dy="4"/>
      <feGaussianBlur stdDeviation="2"/>
      <feComposite in2="hardAlpha" operator="out"/>
      <feColorMatrix type="matrix" values="0 0 0 0 0 0 0 0 0 0 0 0 0 0 0 0 0 0 0.5 0"/>
      <feBlend mode="normal" in2="BackgroundImageFix" result="effect1_dropShadow_56_4145"/>
      <feBlend mode="normal" in="SourceGraphic" in2="effect1_dropShadow_56_4145" result="shape"/>
    </filter>
  </defs>
</svg>