<svg width="44" height="44" viewBox="0 0 44 44" fill="none" xmlns="http://www.w3.org/2000/svg">
<path d="M40.5778 44L25.1778 28.6C23.9556 29.5778 22.55 30.3518 20.9611 30.9222C19.3722 31.4926 17.6815 31.7778 15.8889 31.7778C11.4481 31.7778 7.69022 30.2394 4.61511 27.1627C1.54 24.0859 0.00162963 20.328 0 15.8889C0 11.4481 1.53837 7.69022 4.61511 4.61511C7.69185 1.54 11.4498 0.00162963 15.8889 0C20.3296 0 24.0876 1.53837 27.1627 4.61511C30.2378 7.69185 31.7761 11.4498 31.7778 15.8889C31.7778 17.6815 31.4926 19.3722 30.9222 20.9611C30.3518 22.55 29.5778 23.9556 28.6 25.1778L44 40.5778L40.5778 44ZM15.8889 26.8889C18.9444 26.8889 21.5421 25.819 23.6818 23.6793C25.8215 21.5396 26.8905 18.9428 26.8889 15.8889C26.8889 12.8333 25.819 10.2357 23.6793 8.096C21.5396 5.9563 18.9428 4.88726 15.8889 4.88889C12.8333 4.88889 10.2357 5.95874 8.096 8.09844C5.9563 10.2381 4.88726 12.835 4.88889 15.8889C4.88889 18.9444 5.95874 21.5421 8.09844 23.6818C10.2381 25.8215 12.835 26.8905 15.8889 26.8889Z" fill="white"/>
</svg>
