<svg xmlns="http://www.w3.org/2000/svg" width="28" height="28" viewBox="0 0 28 28" fill="none">
  <path d="M8.4 12.6C8.79667 12.6 9.1294 12.4656 9.3982 12.1968C9.667 11.928 9.80093 11.5957 9.8 11.2C9.8 10.8033 9.6656 10.4706 9.3968 10.2018C9.128 9.933 8.79573 9.79907 8.4 9.8C8.00333 9.8 7.6706 9.9344 7.4018 10.2032C7.133 10.472 6.99907 10.8043 7 11.2C7 11.5967 7.1344 11.9294 7.4032 12.1982C7.672 12.467 8.00427 12.6009 8.4 12.6ZM14 12.6C14.3967 12.6 14.7294 12.4656 14.9982 12.1968C15.267 11.928 15.4009 11.5957 15.4 11.2C15.4 10.8033 15.2656 10.4706 14.9968 10.2018C14.728 9.933 14.3957 9.79907 14 9.8C13.6033 9.8 13.2706 9.9344 13.0018 10.2032C12.733 10.472 12.5991 10.8043 12.6 11.2C12.6 11.5967 12.7344 11.9294 13.0032 12.1982C13.272 12.467 13.6043 12.6009 14 12.6ZM19.6 12.6C19.9967 12.6 20.3294 12.4656 20.5982 12.1968C20.867 11.928 21.0009 11.5957 21 11.2C21 10.8033 20.8656 10.4706 20.5968 10.2018C20.328 9.933 19.9957 9.79907 19.6 9.8C19.2033 9.8 18.8706 9.9344 18.6018 10.2032C18.333 10.472 18.1991 10.8043 18.2 11.2C18.2 11.5967 18.3344 11.9294 18.6032 12.1982C18.872 12.467 19.2043 12.6009 19.6 12.6ZM0 28V2.8C0 2.03 0.2744 1.3706 0.8232 0.821802C1.372 0.273002 2.03093 -0.000930956 2.8 2.37691e-06H25.2C25.97 2.37691e-06 26.6294 0.274402 27.1782 0.823202C27.727 1.372 28.0009 2.03094 28 2.8V19.6C28 20.37 27.7256 21.0294 27.1768 21.5782C26.628 22.127 25.9691 22.4009 25.2 22.4H5.6L0 28ZM4.41 19.6H25.2V2.8H2.8V21.175L4.41 19.6Z" fill="white"/>
</svg>